# Alias OBJ Model File
# Exported from SketchUp, (c) 2000-2012 Trimble Navigation Limited
# File units = inches

mtllib RGB kamer.mtl

g Mesh1 Model

usemtl FrontColor
v 0 347 0
vt 0 347
vn 0 0 -1
v 100.738 225.676 5.68434e-14
vt -100.738 225.676
v 0 0 0
vt 0 0
f 1/1/1 2/2/1 3/3/1

v 290 347 0
vt -290 347
f 2/2/1 1/1/1 4/4/1

usemtl SW_6935_Straightforward_Green
v 0 347 110.303
vt -17.3573 8.85839
vn 0 1 0
vt -41.7233 -0.409318
vt -17.3573 -0.409318
f 5/5/2 4/6/2 1/7/2

v 290 347 110.303
vt -41.7233 8.85839
f 4/6/2 5/5/2 6/8/2

usemtl SW_6320_Bravado_Red
v 290 0 110.303
vt -88.7982 13.653
vn 1 0 0
vt -45.7179 0.899701
vt -45.7179 13.653
f 7/9/3 4/10/3 6/11/3

v 290 0 0
vt -88.7982 0.899701
f 4/10/3 7/9/3 8/12/3

vn 0 -1 0
vt -120.539 0.899701
f 7/9/4 3/13/4 8/12/4

v 0 0 110.303
vt -120.539 13.653
f 3/13/4 7/9/4 9/14/4

usemtl SW_6935_Straightforward_Green
vt -46.5125 8.85839
vn -1 0 0
f 5/15/5 3/7/5 9/5/5

vt -46.5125 -0.409318
f 3/7/5 5/15/5 1/16/5

usemtl FrontColor
v 100.738 168.488 5.68434e-14
vt -100.738 168.488
vt -290 0
f 3/3/1 10/17/1 8/18/1

f 10/17/1 3/3/1 2/2/1

vt 225.676 5.68434e-14
v 100.738 168.488 34.375
vt 168.488 34.375
vt 168.488 5.68434e-14
f 2/19/3 11/20/3 10/21/3

v 100.738 225.676 34.375
vt 225.676 34.375
f 11/20/3 2/19/3 12/22/3

vt 100.738 5.68434e-14
v 152.925 225.676 34.375
vt 152.925 34.375
vt 100.738 34.375
f 2/23/4 13/24/4 12/25/4

v 152.925 225.676 5.68434e-14
vt 152.925 5.68434e-14
f 13/24/4 2/23/4 14/26/4

vt -152.925 225.676
f 2/2/1 4/4/1 14/27/1

v 152.925 168.488 5.68434e-14
vt -152.925 168.488
f 14/27/1 4/4/1 15/28/1

f 8/18/1 15/28/1 4/4/1

f 8/18/1 10/17/1 15/28/1

vt -100.738 34.375
vt -152.925 5.68434e-14
vt -100.738 5.68434e-14
f 11/29/2 15/30/2 10/31/2

v 152.925 168.488 34.375
vt -152.925 34.375
f 15/30/2 11/29/2 16/32/2

f 11/17/1 13/27/1 16/28/1

f 13/27/1 11/17/1 12/2/1

vt -225.676 34.375
vt -168.488 5.68434e-14
vt -168.488 34.375
f 13/33/5 15/34/5 16/35/5

vt -225.676 5.68434e-14
f 15/34/5 13/33/5 14/36/5

